<svg width="30" height="30" viewBox="0 0 30 30" fill="none" xmlns="http://www.w3.org/2000/svg">
<path d="M14.9999 0.833374C7.17992 0.833374 0.833252 7.18004 0.833252 15C0.833252 22.82 7.17992 29.1667 14.9999 29.1667C22.8199 29.1667 29.1666 22.82 29.1666 15C29.1666 7.18004 22.8199 0.833374 14.9999 0.833374ZM14.9999 5.08337C17.3516 5.08337 19.2499 6.98171 19.2499 9.33337C19.2499 11.685 17.3516 13.5834 14.9999 13.5834C12.6483 13.5834 10.7499 11.685 10.7499 9.33337C10.7499 6.98171 12.6483 5.08337 14.9999 5.08337ZM14.9999 25.2C11.4583 25.2 8.32742 23.3867 6.49992 20.6384C6.54242 17.8192 12.1666 16.275 14.9999 16.275C17.8191 16.275 23.4574 17.8192 23.4999 20.6384C21.6724 23.3867 18.5416 25.2 14.9999 25.2Z" fill="#0D1C41"/>
</svg>
